<svg width="221" height="198" viewBox="0 0 221 198" fill="none" xmlns="http://www.w3.org/2000/svg">
<path d="M134.938 128.354C134.938 164.257 105.832 193.363 69.9277 193.363C34.0238 193.363 4.91797 164.257 4.91797 128.354C4.91797 92.4496 34.0238 63.3438 69.9277 63.3438C105.832 63.3438 134.938 92.4496 134.938 128.354Z" stroke="#FE1D5B" stroke-width="8"/>
<path d="M216.473 128.354C216.473 164.257 187.367 193.363 151.463 193.363C115.559 193.363 86.4531 164.257 86.4531 128.354C86.4531 92.4496 115.559 63.3438 151.463 63.3438C187.367 63.3438 216.473 92.4496 216.473 128.354Z" stroke="#FE1D5B" stroke-width="8"/>
<path d="M175.006 70.002C175.006 105.906 145.9 135.012 109.996 135.012C74.0922 135.012 44.9863 105.906 44.9863 70.002C44.9863 34.0981 74.0922 4.99219 109.996 4.99219C145.9 4.99219 175.006 34.098 175.006 70.002Z" stroke="#FE1D5B" stroke-width="8"/>
</svg>
