<svg width="212" height="212" viewBox="0 0 212 212" fill="none" xmlns="http://www.w3.org/2000/svg">
<path d="M131 106C131 119.807 119.807 131 106 131C92.1929 131 81 119.807 81 106C81 92.1929 92.1929 81 106 81C119.807 81 131 92.1929 131 106Z" stroke="#FE1D5B" stroke-width="8"/>
<path d="M147.959 106.225C147.959 129.341 129.22 148.08 106.104 148.08C82.9888 148.08 64.25 129.341 64.25 106.225C64.25 83.1099 82.9888 64.3711 106.104 64.3711C129.22 64.3711 147.959 83.1099 147.959 106.225Z" stroke="#FE1D5B" stroke-width="8"/>
<path d="M162.469 106.225C162.469 137.355 137.234 162.59 106.104 162.59C74.974 162.59 49.7383 137.355 49.7383 106.225C49.7383 75.0951 74.974 49.8594 106.104 49.8594C137.234 49.8594 162.469 75.0951 162.469 106.225Z" stroke="#FE1D5B" stroke-width="8"/>
<path d="M177.699 106.226C177.699 145.766 145.645 177.82 106.105 177.82C66.5653 177.82 34.5117 145.766 34.5117 106.226C34.5117 66.6864 66.5653 34.6328 106.105 34.6328C145.645 34.6328 177.699 66.6864 177.699 106.226Z" stroke="#FE1D5B" stroke-width="8"/>
<path d="M192.626 106.225C192.626 154.01 153.888 192.747 106.104 192.747C58.3191 192.747 19.582 154.01 19.582 106.225C19.582 58.4402 58.3191 19.7031 106.104 19.7031C153.888 19.7031 192.626 58.4402 192.626 106.225Z" stroke="#FE1D5B" stroke-width="8"/>
<path d="M207.338 106.226C207.338 162.135 162.014 207.459 106.104 207.459C50.1948 207.459 4.87109 162.135 4.87109 106.226C4.87109 50.3159 50.1948 4.99219 106.104 4.99219C162.014 4.99219 207.338 50.3159 207.338 106.226Z" stroke="#FE1D5B" stroke-width="8"/>
<path d="M114 106C114 110.418 110.418 114 106 114C101.582 114 98 110.418 98 106C98 101.582 101.582 98 106 98C110.418 98 114 101.582 114 106Z" stroke="#FE1D5B" stroke-width="8"/>
</svg>
