<svg width="1374" height="440" viewBox="0 0 1374 440" fill="none" xmlns="http://www.w3.org/2000/svg">
<rect x="415.006" y="4" width="191.982" height="411.006" transform="rotate(90 415.006 4)" stroke="#FE1D5B" stroke-width="8"/>
<rect x="892.006" y="4" width="191.982" height="411.006" transform="rotate(90 892.006 4)" stroke="#FE1D5B" stroke-width="8"/>
<rect x="415.006" y="244" width="191.982" height="411.006" transform="rotate(90 415.006 244)" stroke="#FE1D5B" stroke-width="8"/>
<rect x="1369.01" y="4" width="191.982" height="411.006" transform="rotate(90 1369.01 4)" stroke="#FE1D5B" stroke-width="8"/>
<rect x="1369.01" y="244" width="191.982" height="411.006" transform="rotate(90 1369.01 244)" stroke="#FE1D5B" stroke-width="8"/>
<rect x="892.006" y="244" width="191.982" height="411.006" transform="rotate(90 892.006 244)" stroke="#FE1D5B" stroke-width="8"/>
<path d="M107.672 112.787L107.672 78.9471L129.272 78.9471V82.2111L111.56 82.2111L111.56 93.9711L128.216 93.9711V97.2831L111.56 97.2831L111.56 109.475L129.272 109.475V112.787L107.672 112.787ZM143.769 113.219C141.401 113.219 139.593 112.547 138.345 111.203C137.097 109.827 136.473 107.763 136.473 105.011L136.473 91.7151H131.769V88.6911H136.473L136.473 82.1151L140.361 81.0111L140.361 88.6911H147.273V91.7151H140.361L140.361 104.579C140.361 106.499 140.681 107.875 141.321 108.707C141.993 109.507 142.985 109.907 144.297 109.907C144.905 109.907 145.449 109.859 145.929 109.763C146.409 109.635 146.841 109.491 147.225 109.331V112.595C146.777 112.787 146.233 112.931 145.593 113.027C144.985 113.155 144.377 113.219 143.769 113.219ZM152.006 112.787L152.006 77.4591H155.894L155.894 94.0191H155.27C155.942 92.1311 157.062 90.7071 158.63 89.7471C160.23 88.7551 162.07 88.2591 164.15 88.2591C167.03 88.2591 169.174 89.0431 170.582 90.6111C171.99 92.1471 172.694 94.4831 172.694 97.6191L172.694 112.787L168.806 112.787L168.806 97.8591C168.806 95.6191 168.358 93.9871 167.462 92.9631C166.598 91.9391 165.19 91.4271 163.238 91.4271C160.998 91.4271 159.206 92.1151 157.862 93.4911C156.55 94.8671 155.894 96.6751 155.894 98.9151L155.894 112.787H152.006ZM190.835 113.219C187.059 113.219 184.083 112.131 181.907 109.955C179.731 107.747 178.643 104.691 178.643 100.787C178.643 98.2591 179.123 96.0671 180.083 94.2111C181.043 92.3231 182.387 90.8671 184.115 89.8431C185.843 88.7871 187.827 88.2591 190.067 88.2591C192.275 88.2591 194.131 88.7231 195.635 89.6511C197.139 90.5791 198.291 91.9071 199.091 93.6351C199.891 95.3311 200.291 97.3471 200.291 99.6831V101.123L181.619 101.123V98.6751L197.747 98.6751L196.931 99.2991C196.931 96.7391 196.355 94.7391 195.203 93.2991C194.051 91.8591 192.339 91.1391 190.067 91.1391C187.667 91.1391 185.795 91.9871 184.451 93.6831C183.107 95.3471 182.435 97.6031 182.435 100.451V100.883C182.435 103.891 183.171 106.179 184.643 107.747C186.147 109.283 188.243 110.051 190.931 110.051C192.371 110.051 193.715 109.843 194.963 109.427C196.243 108.979 197.459 108.259 198.611 107.267L199.955 110.003C198.899 111.027 197.555 111.827 195.923 112.403C194.323 112.947 192.627 113.219 190.835 113.219ZM206.144 112.787L206.144 94.4991C206.144 93.5391 206.112 92.5631 206.048 91.5711C206.016 90.5791 205.952 89.6191 205.856 88.6911L209.6 88.6911L210.08 94.5471L209.408 94.5951C209.728 93.1551 210.288 91.9711 211.088 91.0431C211.888 90.1151 212.832 89.4271 213.92 88.9791C215.008 88.4991 216.144 88.2591 217.328 88.2591C217.808 88.2591 218.224 88.2751 218.576 88.3071C218.96 88.3391 219.312 88.4191 219.632 88.5471L219.584 92.0031C219.104 91.8431 218.656 91.7471 218.24 91.7151C217.856 91.6511 217.408 91.6191 216.896 91.6191C215.488 91.6191 214.256 91.9551 213.2 92.6271C212.176 93.2991 211.392 94.1631 210.848 95.2191C210.336 96.2751 210.08 97.3951 210.08 98.5791L210.08 112.787L206.144 112.787ZM234.1 113.219C230.324 113.219 227.348 112.131 225.172 109.955C222.996 107.747 221.908 104.691 221.908 100.787C221.908 98.2591 222.388 96.0671 223.348 94.2111C224.308 92.3231 225.652 90.8671 227.38 89.8431C229.108 88.7871 231.092 88.2591 233.332 88.2591C235.54 88.2591 237.396 88.7231 238.9 89.6511C240.404 90.5791 241.556 91.9071 242.356 93.6351C243.156 95.3311 243.556 97.3471 243.556 99.6831V101.123L224.884 101.123V98.6751L241.012 98.6751L240.196 99.2991C240.196 96.7391 239.62 94.7391 238.468 93.2991C237.316 91.8591 235.604 91.1391 233.332 91.1391C230.932 91.1391 229.06 91.9871 227.716 93.6831C226.372 95.3471 225.7 97.6031 225.7 100.451V100.883C225.7 103.891 226.436 106.179 227.908 107.747C229.412 109.283 231.508 110.051 234.196 110.051C235.636 110.051 236.98 109.843 238.228 109.427C239.508 108.979 240.724 108.259 241.876 107.267L243.22 110.003C242.164 111.027 240.82 111.827 239.188 112.403C237.588 112.947 235.892 113.219 234.1 113.219ZM258.002 113.219C255.154 113.219 252.994 112.435 251.522 110.867C250.082 109.299 249.362 106.899 249.362 103.667L249.362 88.6911H253.25L253.25 103.571C253.25 105.779 253.698 107.411 254.594 108.467C255.49 109.491 256.882 110.003 258.77 110.003C260.882 110.003 262.578 109.315 263.858 107.939C265.138 106.563 265.778 104.723 265.778 102.419L265.778 88.6911H269.666L269.666 112.787H265.874V107.363H266.498C265.826 109.219 264.738 110.659 263.234 111.683C261.762 112.707 260.018 113.219 258.002 113.219ZM277.209 112.787L277.209 94.2591C277.209 93.3631 277.161 92.4511 277.065 91.5231C277.001 90.5631 276.921 89.6191 276.825 88.6911L280.569 88.6911L281.049 93.9711H280.473C281.113 92.1471 282.121 90.7391 283.497 89.7471C284.905 88.7551 286.601 88.2591 288.585 88.2591C290.601 88.2591 292.233 88.7391 293.481 89.6991C294.761 90.6591 295.625 92.1471 296.073 94.1631H295.353C295.961 92.3391 297.033 90.8991 298.569 89.8431C300.105 88.7871 301.897 88.2591 303.945 88.2591C306.601 88.2591 308.601 89.0271 309.945 90.5631C311.289 92.0671 311.961 94.4511 311.961 97.7151L311.961 112.787L308.073 112.787L308.073 97.9551C308.073 95.6831 307.673 94.0351 306.873 93.0111C306.073 91.9551 304.793 91.4271 303.033 91.4271C301.017 91.4271 299.417 92.1311 298.233 93.5391C297.081 94.9151 296.505 96.7711 296.505 99.1071L296.505 112.787H292.617L292.617 97.9551C292.617 95.6831 292.217 94.0351 291.417 93.0111C290.617 91.9551 289.337 91.4271 287.577 91.4271C285.561 91.4271 283.977 92.1311 282.825 93.5391C281.673 94.9151 281.097 96.7711 281.097 99.1071L281.097 112.787L277.209 112.787Z" fill="#FE1D5B"/>
<path d="M631.42 113.219C627.708 113.219 624.604 112.531 622.108 111.155C619.612 109.779 617.74 107.795 616.492 105.203C615.244 102.611 614.62 99.5071 614.62 95.8911C614.62 92.3071 615.276 89.2191 616.588 86.6271C617.9 84.0351 619.788 82.0351 622.252 80.6271C624.716 79.2191 627.692 78.5151 631.18 78.5151C633.644 78.5151 635.772 78.8831 637.564 79.6191C639.388 80.3231 641.02 81.3791 642.46 82.7871L640.972 85.9071C639.916 84.9791 638.892 84.2431 637.9 83.6991C636.94 83.1551 635.932 82.7551 634.876 82.4991C633.82 82.2111 632.588 82.0671 631.18 82.0671C627.18 82.0671 624.108 83.2831 621.964 85.7151C619.852 88.1151 618.796 91.5231 618.796 95.9391C618.796 100.387 619.82 103.795 621.868 106.163C623.948 108.531 627.164 109.715 631.516 109.715C633.116 109.715 634.636 109.571 636.076 109.283C637.548 108.963 638.972 108.515 640.348 107.939L639.484 110.099L639.484 98.1951L630.844 98.1951V95.0751L642.892 95.0751L642.892 110.771C641.516 111.507 639.772 112.099 637.66 112.547C635.58 112.995 633.5 113.219 631.42 113.219ZM650.545 112.787L650.545 94.2591C650.545 93.3631 650.497 92.4511 650.401 91.5231C650.337 90.5631 650.257 89.6191 650.161 88.6911H653.905L654.385 93.9711H653.809C654.513 92.1151 655.633 90.7071 657.169 89.7471C658.737 88.7551 660.545 88.2591 662.593 88.2591C665.441 88.2591 667.585 89.0271 669.025 90.5631C670.497 92.0671 671.233 94.4511 671.233 97.7151L671.233 112.787L667.345 112.787L667.345 97.9551C667.345 95.6831 666.881 94.0351 665.953 93.0111C665.057 91.9551 663.649 91.4271 661.729 91.4271C659.489 91.4271 657.713 92.1151 656.401 93.4911C655.089 94.8671 654.433 96.7071 654.433 99.0111L654.433 112.787H650.545ZM688.558 113.219C686.254 113.219 684.238 112.723 682.51 111.731C680.814 110.707 679.502 109.267 678.574 107.411C677.646 105.523 677.182 103.299 677.182 100.739C677.182 98.1471 677.646 95.9231 678.574 94.0671C679.502 92.2111 680.814 90.7871 682.51 89.7951C684.238 88.7711 686.254 88.2591 688.558 88.2591C690.894 88.2591 692.91 88.7711 694.606 89.7951C696.334 90.7871 697.662 92.2111 698.59 94.0671C699.55 95.9231 700.03 98.1471 700.03 100.739C700.03 103.299 699.55 105.523 698.59 107.411C697.662 109.267 696.334 110.707 694.606 111.731C692.91 112.723 690.894 113.219 688.558 113.219ZM688.558 110.051C690.862 110.051 692.686 109.267 694.03 107.699C695.374 106.099 696.046 103.779 696.046 100.739C696.046 97.6671 695.358 95.3471 693.982 93.7791C692.638 92.1791 690.83 91.3791 688.558 91.3791C686.286 91.3791 684.478 92.1791 683.134 93.7791C681.79 95.3471 681.118 97.6671 681.118 100.739C681.118 103.779 681.79 106.099 683.134 107.699C684.478 109.267 686.286 110.051 688.558 110.051ZM714.108 113.219C712.188 113.219 710.396 112.963 708.732 112.451C707.068 111.907 705.692 111.155 704.604 110.195L705.948 107.459C707.132 108.387 708.412 109.075 709.788 109.523C711.196 109.971 712.652 110.195 714.156 110.195C716.076 110.195 717.516 109.859 718.476 109.187C719.468 108.483 719.964 107.523 719.964 106.307C719.964 105.379 719.644 104.643 719.004 104.099C718.396 103.523 717.388 103.075 715.98 102.755L711.516 101.843C709.468 101.395 707.932 100.643 706.908 99.5871C705.884 98.4991 705.372 97.1231 705.372 95.4591C705.372 94.0511 705.74 92.8191 706.476 91.7631C707.212 90.6751 708.284 89.8271 709.692 89.2191C711.1 88.5791 712.748 88.2591 714.636 88.2591C716.396 88.2591 718.012 88.5311 719.484 89.0751C720.988 89.5871 722.236 90.3391 723.228 91.3311L721.836 94.0191C720.876 93.0911 719.772 92.4031 718.524 91.9551C717.308 91.4751 716.044 91.2351 714.732 91.2351C712.844 91.2351 711.42 91.6191 710.46 92.3871C709.532 93.1231 709.068 94.0991 709.068 95.3151C709.068 96.2431 709.356 97.0111 709.932 97.6191C710.54 98.1951 711.468 98.6271 712.716 98.9151L717.18 99.8271C719.356 100.307 720.972 101.059 722.028 102.083C723.116 103.075 723.66 104.419 723.66 106.115C723.66 107.555 723.26 108.819 722.46 109.907C721.66 110.963 720.54 111.779 719.1 112.355C717.692 112.931 716.028 113.219 714.108 113.219ZM729.904 112.787L729.904 88.6911L733.792 88.6911L733.792 112.787L729.904 112.787ZM729.424 83.2191V78.8511L734.224 78.8511V83.2191L729.424 83.2191ZM749.358 113.219C747.438 113.219 745.646 112.963 743.982 112.451C742.318 111.907 740.942 111.155 739.854 110.195L741.198 107.459C742.382 108.387 743.662 109.075 745.038 109.523C746.446 109.971 747.902 110.195 749.406 110.195C751.326 110.195 752.766 109.859 753.726 109.187C754.718 108.483 755.214 107.523 755.214 106.307C755.214 105.379 754.894 104.643 754.254 104.099C753.646 103.523 752.638 103.075 751.23 102.755L746.766 101.843C744.718 101.395 743.182 100.643 742.158 99.5871C741.134 98.4991 740.622 97.1231 740.622 95.4591C740.622 94.0511 740.99 92.8191 741.726 91.7631C742.462 90.6751 743.534 89.8271 744.942 89.2191C746.35 88.5791 747.998 88.2591 749.886 88.2591C751.646 88.2591 753.262 88.5311 754.734 89.0751C756.238 89.5871 757.486 90.3391 758.478 91.3311L757.086 94.0191C756.126 93.0911 755.022 92.4031 753.774 91.9551C752.558 91.4751 751.294 91.2351 749.982 91.2351C748.094 91.2351 746.67 91.6191 745.71 92.3871C744.782 93.1231 744.318 94.0991 744.318 95.3151C744.318 96.2431 744.606 97.0111 745.182 97.6191C745.79 98.1951 746.718 98.6271 747.966 98.9151L752.43 99.8271C754.606 100.307 756.222 101.059 757.278 102.083C758.366 103.075 758.91 104.419 758.91 106.115C758.91 107.555 758.51 108.819 757.71 109.907C756.91 110.963 755.79 111.779 754.35 112.355C752.942 112.931 751.278 113.219 749.358 113.219Z" fill="#FE1D5B"/>
<path d="M111.859 352.787L126.787 318.947H130.243L145.411 352.787H141.283L137.059 343.139L138.835 344.147H118.147L120.067 343.139L115.939 352.787H111.859ZM128.467 323.507L120.691 341.747L119.539 340.883H137.395L136.531 341.747L128.563 323.507H128.467ZM149.988 352.787L149.988 334.499C149.988 333.539 149.956 332.563 149.892 331.571C149.86 330.579 149.796 329.619 149.7 328.691H153.444L153.924 334.547L153.252 334.595C153.572 333.155 154.132 331.971 154.932 331.043C155.732 330.115 156.676 329.427 157.764 328.979C158.852 328.499 159.988 328.259 161.172 328.259C161.652 328.259 162.068 328.275 162.42 328.307C162.804 328.339 163.156 328.419 163.476 328.547L163.428 332.003C162.948 331.843 162.5 331.747 162.084 331.715C161.7 331.651 161.252 331.619 160.74 331.619C159.332 331.619 158.1 331.955 157.044 332.627C156.02 333.299 155.236 334.163 154.692 335.219C154.18 336.275 153.924 337.395 153.924 338.579L153.924 352.787L149.988 352.787ZM179.617 353.219C177.441 353.219 175.569 352.675 174.001 351.587C172.433 350.467 171.377 348.947 170.833 347.027H171.361L171.361 352.787H167.521L167.521 317.459H171.409L171.409 334.307H170.833C171.377 332.451 172.433 330.979 174.001 329.891C175.569 328.803 177.441 328.259 179.617 328.259C181.793 328.259 183.665 328.771 185.233 329.795C186.833 330.787 188.065 332.211 188.929 334.067C189.825 335.923 190.273 338.147 190.273 340.739C190.273 343.331 189.825 345.555 188.929 347.411C188.033 349.267 186.785 350.707 185.185 351.731C183.617 352.723 181.761 353.219 179.617 353.219ZM178.801 350.051C181.073 350.051 182.897 349.267 184.273 347.699C185.649 346.131 186.337 343.811 186.337 340.739C186.337 337.667 185.649 335.347 184.273 333.779C182.897 332.179 181.073 331.379 178.801 331.379C176.529 331.379 174.705 332.179 173.329 333.779C171.985 335.347 171.313 337.667 171.313 340.739C171.313 343.779 171.985 346.099 173.329 347.699C174.705 349.267 176.529 350.051 178.801 350.051ZM196.303 352.787L196.303 328.691H200.191L200.191 352.787H196.303ZM195.823 323.219V318.851H200.623V323.219H195.823ZM216.284 353.219C213.916 353.219 212.108 352.547 210.86 351.203C209.612 349.827 208.988 347.763 208.988 345.011V331.715H204.284L204.284 328.691H208.988L208.988 322.115L212.876 321.011L212.876 328.691H219.788V331.715H212.876L212.876 344.579C212.876 346.499 213.196 347.875 213.836 348.707C214.508 349.507 215.5 349.907 216.812 349.907C217.42 349.907 217.964 349.859 218.444 349.763C218.924 349.635 219.356 349.491 219.74 349.331V352.595C219.292 352.787 218.748 352.931 218.108 353.027C217.5 353.155 216.892 353.219 216.284 353.219ZM224.425 352.787L224.425 334.499C224.425 333.539 224.393 332.563 224.329 331.571C224.297 330.579 224.233 329.619 224.137 328.691H227.881L228.361 334.547L227.689 334.595C228.009 333.155 228.569 331.971 229.369 331.043C230.169 330.115 231.113 329.427 232.201 328.979C233.289 328.499 234.425 328.259 235.609 328.259C236.089 328.259 236.505 328.275 236.857 328.307C237.241 328.339 237.593 328.419 237.913 328.547L237.865 332.003C237.385 331.843 236.937 331.747 236.521 331.715C236.137 331.651 235.689 331.619 235.177 331.619C233.769 331.619 232.537 331.955 231.481 332.627C230.457 333.299 229.673 334.163 229.129 335.219C228.617 336.275 228.361 337.395 228.361 338.579L228.361 352.787H224.425ZM250.455 353.219C247.607 353.219 245.447 352.435 243.975 350.867C242.535 349.299 241.815 346.899 241.815 343.667L241.815 328.691H245.703L245.703 343.571C245.703 345.779 246.151 347.411 247.047 348.467C247.943 349.491 249.335 350.003 251.223 350.003C253.335 350.003 255.031 349.315 256.311 347.939C257.591 346.563 258.231 344.723 258.231 342.419L258.231 328.691H262.119L262.119 352.787H258.327V347.363H258.951C258.279 349.219 257.191 350.659 255.687 351.683C254.215 352.707 252.471 353.219 250.455 353.219ZM269.662 352.787L269.662 334.259C269.662 333.363 269.614 332.451 269.518 331.523C269.454 330.563 269.374 329.619 269.278 328.691H273.022L273.502 333.971H272.926C273.566 332.147 274.574 330.739 275.95 329.747C277.358 328.755 279.054 328.259 281.038 328.259C283.054 328.259 284.686 328.739 285.934 329.699C287.214 330.659 288.078 332.147 288.526 334.163H287.806C288.414 332.339 289.486 330.899 291.022 329.843C292.558 328.787 294.35 328.259 296.398 328.259C299.054 328.259 301.054 329.027 302.398 330.563C303.742 332.067 304.414 334.451 304.414 337.715L304.414 352.787H300.526L300.526 337.955C300.526 335.683 300.126 334.035 299.326 333.011C298.526 331.955 297.246 331.427 295.486 331.427C293.47 331.427 291.87 332.131 290.686 333.539C289.534 334.915 288.958 336.771 288.958 339.107L288.958 352.787H285.07L285.07 337.955C285.07 335.683 284.67 334.035 283.87 333.011C283.07 331.955 281.79 331.427 280.03 331.427C278.014 331.427 276.43 332.131 275.278 333.539C274.126 334.915 273.55 336.771 273.55 339.107L273.55 352.787H269.662Z" fill="#FE1D5B"/>
<path d="M1059.79 95.8431C1059.79 92.2591 1060.4 89.1871 1061.62 86.6271C1062.86 84.0351 1064.64 82.0351 1066.94 80.6271C1069.28 79.2191 1072.08 78.5151 1075.34 78.5151C1078.51 78.5151 1081.26 79.2191 1083.6 80.6271C1085.94 82.0351 1087.73 84.0351 1088.98 86.6271C1090.26 89.1871 1090.9 92.2431 1090.9 95.7951C1090.9 99.3791 1090.26 102.467 1088.98 105.059C1087.7 107.651 1085.89 109.667 1083.55 111.107C1081.25 112.515 1078.51 113.219 1075.34 113.219C1072.08 113.219 1069.3 112.515 1066.99 111.107C1064.69 109.667 1062.91 107.651 1061.66 105.059C1060.42 102.467 1059.79 99.3951 1059.79 95.8431ZM1063.97 95.8431C1063.97 100.195 1064.93 103.603 1066.85 106.067C1068.77 108.499 1071.6 109.715 1075.34 109.715C1078.93 109.715 1081.71 108.499 1083.7 106.067C1085.71 103.603 1086.72 100.195 1086.72 95.8431C1086.72 91.4591 1085.73 88.0671 1083.74 85.6671C1081.76 83.2351 1078.96 82.0191 1075.34 82.0191C1071.6 82.0191 1068.77 83.2351 1066.85 85.6671C1064.93 88.0671 1063.97 91.4591 1063.97 95.8431ZM1097.69 123.155V94.2591C1097.69 93.3631 1097.64 92.4511 1097.54 91.5231C1097.48 90.5631 1097.4 89.6191 1097.3 88.6911H1101.05L1101.57 94.4031L1101 94.4031C1101.51 92.5151 1102.55 91.0271 1104.12 89.9391C1105.69 88.8191 1107.56 88.2591 1109.73 88.2591C1111.91 88.2591 1113.78 88.7551 1115.35 89.7471C1116.95 90.7391 1118.2 92.1631 1119.09 94.0191C1119.99 95.8751 1120.44 98.1151 1120.44 100.739C1120.44 103.331 1119.99 105.555 1119.09 107.411C1118.23 109.267 1117 110.707 1115.4 111.731C1113.8 112.723 1111.91 113.219 1109.73 113.219C1107.59 113.219 1105.73 112.675 1104.17 111.587C1102.6 110.499 1101.56 109.011 1101.05 107.123L1101.57 107.123V123.155L1097.69 123.155ZM1108.97 110.051C1111.27 110.051 1113.09 109.267 1114.44 107.699C1115.81 106.099 1116.5 103.779 1116.5 100.739C1116.5 97.6671 1115.81 95.3471 1114.44 93.7791C1113.09 92.1791 1111.27 91.3791 1108.97 91.3791C1106.69 91.3791 1104.87 92.1791 1103.49 93.7791C1102.15 95.3471 1101.48 97.6671 1101.48 100.739C1101.48 103.779 1102.15 106.099 1103.49 107.699C1104.87 109.267 1106.69 110.051 1108.97 110.051ZM1134.78 113.219C1132.41 113.219 1130.6 112.547 1129.35 111.203C1128.1 109.827 1127.48 107.763 1127.48 105.011V91.7151L1122.78 91.7151V88.6911L1127.48 88.6911V82.1151L1131.37 81.0111V88.6911H1138.28V91.7151H1131.37V104.579C1131.37 106.499 1131.69 107.875 1132.33 108.707C1133 109.507 1133.99 109.907 1135.3 109.907C1135.91 109.907 1136.46 109.859 1136.94 109.763C1137.42 109.635 1137.85 109.491 1138.23 109.331V112.595C1137.78 112.787 1137.24 112.931 1136.6 113.027C1135.99 113.155 1135.38 113.219 1134.78 113.219ZM1143.01 112.787V88.6911H1146.9V112.787L1143.01 112.787ZM1142.53 83.2191V78.8511H1147.33V83.2191H1142.53ZM1154.45 112.787V94.2591C1154.45 93.3631 1154.4 92.4511 1154.31 91.5231C1154.24 90.5631 1154.16 89.6191 1154.07 88.6911H1157.81L1158.29 93.9711H1157.72C1158.36 92.1471 1159.36 90.7391 1160.74 89.7471C1162.15 88.7551 1163.84 88.2591 1165.83 88.2591C1167.84 88.2591 1169.48 88.7391 1170.72 89.6991C1172 90.6591 1172.87 92.1471 1173.32 94.1631H1172.6C1173.2 92.3391 1174.28 90.8991 1175.81 89.8431C1177.35 88.7871 1179.14 88.2591 1181.19 88.2591C1183.84 88.2591 1185.84 89.0271 1187.19 90.5631C1188.53 92.0671 1189.2 94.4511 1189.2 97.7151V112.787L1185.32 112.787V97.9551C1185.32 95.6831 1184.92 94.0351 1184.12 93.0111C1183.32 91.9551 1182.04 91.4271 1180.28 91.4271C1178.26 91.4271 1176.66 92.1311 1175.48 93.5391C1174.32 94.9151 1173.75 96.7711 1173.75 99.1071V112.787H1169.86V97.9551C1169.86 95.6831 1169.46 94.0351 1168.66 93.0111C1167.86 91.9551 1166.58 91.4271 1164.82 91.4271C1162.8 91.4271 1161.22 92.1311 1160.07 93.5391C1158.92 94.9151 1158.34 96.7711 1158.34 99.1071V112.787H1154.45ZM1196.59 112.787V88.6911H1200.48V112.787H1196.59ZM1196.11 83.2191V78.8511H1200.91V83.2191H1196.11ZM1216.05 113.219C1214.13 113.219 1212.33 112.963 1210.67 112.451C1209.01 111.907 1207.63 111.155 1206.54 110.195L1207.89 107.459C1209.07 108.387 1210.35 109.075 1211.73 109.523C1213.13 109.971 1214.59 110.195 1216.09 110.195C1218.01 110.195 1219.45 109.859 1220.41 109.187C1221.41 108.483 1221.9 107.523 1221.9 106.307C1221.9 105.379 1221.58 104.643 1220.94 104.099C1220.33 103.523 1219.33 103.075 1217.92 102.755L1213.45 101.843C1211.41 101.395 1209.87 100.643 1208.85 99.5871C1207.82 98.4991 1207.31 97.1231 1207.31 95.4591C1207.31 94.0511 1207.68 92.8191 1208.41 91.7631C1209.15 90.6751 1210.22 89.8271 1211.63 89.2191C1213.04 88.5791 1214.69 88.2591 1216.57 88.2591C1218.33 88.2591 1219.95 88.5311 1221.42 89.0751C1222.93 89.5871 1224.17 90.3391 1225.17 91.3311L1223.77 94.0191C1222.81 93.0911 1221.71 92.4031 1220.46 91.9551C1219.25 91.4751 1217.98 91.2351 1216.67 91.2351C1214.78 91.2351 1213.36 91.6191 1212.4 92.3871C1211.47 93.1231 1211.01 94.0991 1211.01 95.3151C1211.01 96.2431 1211.29 97.0111 1211.87 97.6191C1212.48 98.1951 1213.41 98.6271 1214.65 98.9151L1219.12 99.8271C1221.29 100.307 1222.91 101.059 1223.97 102.083C1225.05 103.075 1225.6 104.419 1225.6 106.115C1225.6 107.555 1225.2 108.819 1224.4 109.907C1223.6 110.963 1222.48 111.779 1221.04 112.355C1219.63 112.931 1217.97 113.219 1216.05 113.219ZM1231.84 112.787V94.2591C1231.84 93.3631 1231.79 92.4511 1231.7 91.5231C1231.63 90.5631 1231.55 89.6191 1231.46 88.6911L1235.2 88.6911L1235.68 93.9711H1235.11C1235.75 92.1471 1236.75 90.7391 1238.13 89.7471C1239.54 88.7551 1241.23 88.2591 1243.22 88.2591C1245.23 88.2591 1246.87 88.7391 1248.11 89.6991C1249.39 90.6591 1250.26 92.1471 1250.71 94.1631H1249.99C1250.59 92.3391 1251.67 90.8991 1253.2 89.8431C1254.74 88.7871 1256.53 88.2591 1258.58 88.2591C1261.23 88.2591 1263.23 89.0271 1264.58 90.5631C1265.92 92.0671 1266.59 94.4511 1266.59 97.7151V112.787L1262.71 112.787V97.9551C1262.71 95.6831 1262.31 94.0351 1261.51 93.0111C1260.71 91.9551 1259.43 91.4271 1257.67 91.4271C1255.65 91.4271 1254.05 92.1311 1252.87 93.5391C1251.71 94.9151 1251.14 96.7711 1251.14 99.1071V112.787H1247.25V97.9551C1247.25 95.6831 1246.85 94.0351 1246.05 93.0111C1245.25 91.9551 1243.97 91.4271 1242.21 91.4271C1240.19 91.4271 1238.61 92.1311 1237.46 93.5391C1236.31 94.9151 1235.73 96.7711 1235.73 99.1071V112.787L1231.84 112.787Z" fill="#FE1D5B"/>
<path d="M1134.42 353.219C1131.02 353.219 1128.14 352.515 1125.78 351.107C1123.41 349.699 1121.58 347.699 1120.3 345.107C1119.06 342.515 1118.43 339.427 1118.43 335.843C1118.43 332.259 1119.06 329.187 1120.3 326.627C1121.58 324.035 1123.41 322.035 1125.78 320.627C1128.14 319.219 1131.02 318.515 1134.42 318.515C1136.82 318.515 1138.96 318.883 1140.85 319.619C1142.74 320.355 1144.38 321.427 1145.79 322.835L1144.3 326.003C1142.77 324.659 1141.25 323.683 1139.74 323.075C1138.24 322.435 1136.48 322.115 1134.46 322.115C1130.59 322.115 1127.65 323.315 1125.63 325.715C1123.62 328.115 1122.61 331.491 1122.61 335.843C1122.61 340.195 1123.62 343.587 1125.63 346.019C1127.65 348.419 1130.59 349.619 1134.46 349.619C1136.48 349.619 1138.24 349.315 1139.74 348.707C1141.25 348.067 1142.77 347.059 1144.3 345.683L1145.79 348.899C1144.38 350.275 1142.74 351.347 1140.85 352.115C1138.96 352.851 1136.82 353.219 1134.42 353.219ZM1161.08 353.219C1157.3 353.219 1154.33 352.131 1152.15 349.955C1149.97 347.747 1148.89 344.691 1148.89 340.787C1148.89 338.259 1149.37 336.067 1150.33 334.211C1151.29 332.323 1152.63 330.867 1154.36 329.843C1156.09 328.787 1158.07 328.259 1160.31 328.259C1162.52 328.259 1164.37 328.723 1165.88 329.651C1167.38 330.579 1168.53 331.907 1169.33 333.635C1170.13 335.331 1170.53 337.347 1170.53 339.683V341.123L1151.86 341.123V338.675L1167.99 338.675L1167.17 339.299C1167.17 336.739 1166.6 334.739 1165.45 333.299C1164.29 331.859 1162.58 331.139 1160.31 331.139C1157.91 331.139 1156.04 331.987 1154.69 333.683C1153.35 335.347 1152.68 337.603 1152.68 340.451V340.883C1152.68 343.891 1153.41 346.179 1154.89 347.747C1156.39 349.283 1158.49 350.051 1161.17 350.051C1162.61 350.051 1163.96 349.843 1165.21 349.427C1166.49 348.979 1167.7 348.259 1168.85 347.267L1170.2 350.003C1169.14 351.027 1167.8 351.827 1166.17 352.403C1164.57 352.947 1162.87 353.219 1161.08 353.219ZM1176.48 352.787V317.459H1180.37V352.787H1176.48ZM1197.81 353.219C1195.5 353.219 1193.49 352.723 1191.76 351.731C1190.06 350.707 1188.75 349.267 1187.82 347.411C1186.9 345.523 1186.43 343.299 1186.43 340.739C1186.43 338.147 1186.9 335.923 1187.82 334.067C1188.75 332.211 1190.06 330.787 1191.76 329.795C1193.49 328.771 1195.5 328.259 1197.81 328.259C1200.14 328.259 1202.16 328.771 1203.86 329.795C1205.58 330.787 1206.91 332.211 1207.84 334.067C1208.8 335.923 1209.28 338.147 1209.28 340.739C1209.28 343.299 1208.8 345.523 1207.84 347.411C1206.91 349.267 1205.58 350.707 1203.86 351.731C1202.16 352.723 1200.14 353.219 1197.81 353.219ZM1197.81 350.051C1200.11 350.051 1201.94 349.267 1203.28 347.699C1204.62 346.099 1205.3 343.779 1205.3 340.739C1205.3 337.667 1204.61 335.347 1203.23 333.779C1201.89 332.179 1200.08 331.379 1197.81 331.379C1195.54 331.379 1193.73 332.179 1192.38 333.779C1191.04 335.347 1190.37 337.667 1190.37 340.739C1190.37 343.779 1191.04 346.099 1192.38 347.699C1193.73 349.267 1195.54 350.051 1197.81 350.051Z" fill="#FE1D5B"/>
<path d="M601.36 352.787L601.36 318.947H615.136C618.688 318.947 621.424 319.811 623.344 321.539C625.264 323.235 626.224 325.603 626.224 328.643C626.224 331.619 625.264 333.987 623.344 335.747C621.424 337.475 618.688 338.339 615.136 338.339H605.344L605.344 352.787H601.36ZM605.344 335.027H614.752C617.216 335.027 619.072 334.467 620.32 333.347C621.6 332.227 622.24 330.659 622.24 328.643C622.24 326.595 621.6 325.011 620.32 323.891C619.072 322.771 617.216 322.211 614.752 322.211H605.344V335.027ZM641.05 353.219C638.746 353.219 636.73 352.723 635.002 351.731C633.306 350.707 631.994 349.267 631.066 347.411C630.138 345.523 629.674 343.299 629.674 340.739C629.674 338.147 630.138 335.923 631.066 334.067C631.994 332.211 633.306 330.787 635.002 329.795C636.73 328.771 638.746 328.259 641.05 328.259C643.386 328.259 645.402 328.771 647.098 329.795C648.826 330.787 650.154 332.211 651.082 334.067C652.042 335.923 652.522 338.147 652.522 340.739C652.522 343.299 652.042 345.523 651.082 347.411C650.154 349.267 648.826 350.707 647.098 351.731C645.402 352.723 643.386 353.219 641.05 353.219ZM641.05 350.051C643.354 350.051 645.178 349.267 646.522 347.699C647.866 346.099 648.538 343.779 648.538 340.739C648.538 337.667 647.85 335.347 646.474 333.779C645.13 332.179 643.322 331.379 641.05 331.379C638.778 331.379 636.97 332.179 635.626 333.779C634.282 335.347 633.61 337.667 633.61 340.739C633.61 343.779 634.282 346.099 635.626 347.699C636.97 349.267 638.778 350.051 641.05 350.051ZM658.584 352.787L658.584 317.459H662.472L662.472 352.787H658.584ZM669.061 363.683L668.149 360.467C669.653 360.115 670.901 359.699 671.893 359.219C672.917 358.771 673.765 358.163 674.437 357.395C675.109 356.627 675.685 355.667 676.165 354.515L677.413 351.683L677.317 353.315L666.805 328.691H671.029L679.717 349.859H678.469L687.061 328.691H691.141L680.005 354.803C679.365 356.339 678.661 357.619 677.893 358.643C677.125 359.699 676.293 360.547 675.397 361.187C674.533 361.859 673.573 362.387 672.517 362.771C671.461 363.155 670.309 363.459 669.061 363.683ZM705.801 363.491C703.721 363.491 701.801 363.235 700.041 362.723C698.281 362.211 696.697 361.427 695.289 360.371L696.441 357.443C697.433 358.147 698.409 358.707 699.369 359.123C700.329 359.539 701.321 359.843 702.345 360.035C703.369 360.259 704.457 360.371 705.609 360.371C707.977 360.371 709.769 359.747 710.985 358.499C712.201 357.251 712.809 355.475 712.809 353.171V346.115H713.289C712.777 348.003 711.721 349.507 710.121 350.627C708.521 351.715 706.649 352.259 704.505 352.259C702.297 352.259 700.377 351.779 698.745 350.819C697.145 349.827 695.897 348.435 695.001 346.643C694.137 344.819 693.705 342.675 693.705 340.211C693.705 337.779 694.137 335.667 695.001 333.875C695.897 332.083 697.145 330.707 698.745 329.747C700.377 328.755 702.297 328.259 704.505 328.259C706.681 328.259 708.553 328.803 710.121 329.891C711.721 330.979 712.777 332.483 713.289 334.403L712.809 333.923L713.241 328.691H717.033C716.905 329.619 716.809 330.563 716.745 331.523C716.681 332.451 716.649 333.363 716.649 334.259L716.649 352.643C716.649 356.227 715.721 358.931 713.865 360.755C712.041 362.579 709.353 363.491 705.801 363.491ZM705.225 349.091C707.561 349.091 709.401 348.323 710.745 346.787C712.089 345.219 712.761 343.027 712.761 340.211C712.761 337.395 712.089 335.219 710.745 333.683C709.401 332.147 707.561 331.379 705.225 331.379C702.921 331.379 701.081 332.147 699.705 333.683C698.329 335.219 697.641 337.395 697.641 340.211C697.641 343.027 698.329 345.219 699.705 346.787C701.081 348.323 702.921 349.091 705.225 349.091ZM734.003 353.219C731.699 353.219 729.683 352.723 727.955 351.731C726.259 350.707 724.947 349.267 724.019 347.411C723.091 345.523 722.627 343.299 722.627 340.739C722.627 338.147 723.091 335.923 724.019 334.067C724.947 332.211 726.259 330.787 727.955 329.795C729.683 328.771 731.699 328.259 734.003 328.259C736.339 328.259 738.355 328.771 740.051 329.795C741.779 330.787 743.107 332.211 744.035 334.067C744.995 335.923 745.475 338.147 745.475 340.739C745.475 343.299 744.995 345.523 744.035 347.411C743.107 349.267 741.779 350.707 740.051 351.731C738.355 352.723 736.339 353.219 734.003 353.219ZM734.003 350.051C736.307 350.051 738.131 349.267 739.475 347.699C740.819 346.099 741.491 343.779 741.491 340.739C741.491 337.667 740.803 335.347 739.427 333.779C738.083 332.179 736.275 331.379 734.003 331.379C731.731 331.379 729.923 332.179 728.579 333.779C727.235 335.347 726.563 337.667 726.563 340.739C726.563 343.779 727.235 346.099 728.579 347.699C729.923 349.267 731.731 350.051 734.003 350.051ZM751.537 352.787L751.537 334.259C751.537 333.363 751.489 332.451 751.393 331.523C751.329 330.563 751.249 329.619 751.153 328.691H754.897L755.377 333.971H754.801C755.505 332.115 756.625 330.707 758.161 329.747C759.729 328.755 761.537 328.259 763.585 328.259C766.433 328.259 768.577 329.027 770.017 330.563C771.489 332.067 772.225 334.451 772.225 337.715L772.225 352.787H768.337L768.337 337.955C768.337 335.683 767.873 334.035 766.945 333.011C766.049 331.955 764.641 331.427 762.721 331.427C760.481 331.427 758.705 332.115 757.393 333.491C756.081 334.867 755.425 336.707 755.425 339.011L755.425 352.787H751.537Z" fill="#FE1D5B"/>
</svg>
