<svg width="1730" height="711" viewBox="0 0 1730 711" fill="none" xmlns="http://www.w3.org/2000/svg">
<rect x="584.248" y="4" width="1141.57" height="567.086" stroke="#FE1D5B" stroke-width="8"/>
<path d="M706.172 709.828C707.734 711.391 710.266 711.391 711.828 709.828L737.284 684.373C738.846 682.81 738.846 680.278 737.284 678.716C735.722 677.154 733.19 677.154 731.627 678.716L709 701.343L686.373 678.716C684.81 677.154 682.278 677.154 680.716 678.716C679.154 680.278 679.154 682.81 680.716 684.373L706.172 709.828ZM705 575L705 707L713 707L713 575L705 575Z" fill="#FE1D5B"/>
<path d="M684.246 141.174C678.91 141.174 674.448 140.185 670.86 138.207C667.272 136.229 664.581 133.377 662.787 129.651C660.993 125.925 660.096 121.463 660.096 116.265C660.096 111.113 661.039 106.674 662.925 102.948C664.811 99.2217 667.525 96.3467 671.067 94.3227C674.609 92.2987 678.887 91.2867 683.901 91.2867C687.443 91.2867 690.502 91.8157 693.078 92.8737C695.7 93.8857 698.046 95.4037 700.116 97.4277L697.977 101.913C696.459 100.579 694.987 99.5207 693.561 98.7387C692.181 97.9567 690.732 97.3817 689.214 97.0137C687.696 96.5997 685.925 96.3927 683.901 96.3927C678.151 96.3927 673.735 98.1407 670.653 101.637C667.617 105.087 666.099 109.986 666.099 116.334C666.099 122.728 667.571 127.627 670.515 131.031C673.505 134.435 678.128 136.137 684.384 136.137C686.684 136.137 688.869 135.93 690.939 135.516C693.055 135.056 695.102 134.412 697.08 133.584L695.838 136.689V119.577H683.418V115.092H700.737V137.655C698.759 138.713 696.252 139.564 693.216 140.208C690.226 140.852 687.236 141.174 684.246 141.174ZM711.739 140.553V113.919C711.739 112.631 711.67 111.32 711.532 109.986C711.44 108.606 711.325 107.249 711.187 105.915H716.569L717.259 113.505H716.431C717.443 110.837 719.053 108.813 721.261 107.433C723.515 106.007 726.114 105.294 729.058 105.294C733.152 105.294 736.234 106.398 738.304 108.606C740.42 110.768 741.478 114.195 741.478 118.887V140.553H735.889V119.232C735.889 115.966 735.222 113.597 733.888 112.125C732.6 110.607 730.576 109.848 727.816 109.848C724.596 109.848 722.043 110.837 720.157 112.815C718.271 114.793 717.328 117.438 717.328 120.75V140.553H711.739ZM766.383 141.174C763.071 141.174 760.173 140.461 757.689 139.035C755.251 137.563 753.365 135.493 752.031 132.825C750.697 130.111 750.03 126.914 750.03 123.234C750.03 119.508 750.697 116.311 752.031 113.643C753.365 110.975 755.251 108.928 757.689 107.502C760.173 106.03 763.071 105.294 766.383 105.294C769.741 105.294 772.639 106.03 775.077 107.502C777.561 108.928 779.47 110.975 780.804 113.643C782.184 116.311 782.874 119.508 782.874 123.234C782.874 126.914 782.184 130.111 780.804 132.825C779.47 135.493 777.561 137.563 775.077 139.035C772.639 140.461 769.741 141.174 766.383 141.174ZM766.383 136.62C769.695 136.62 772.317 135.493 774.249 133.239C776.181 130.939 777.147 127.604 777.147 123.234C777.147 118.818 776.158 115.483 774.18 113.229C772.248 110.929 769.649 109.779 766.383 109.779C763.117 109.779 760.518 110.929 758.586 113.229C756.654 115.483 755.688 118.818 755.688 123.234C755.688 127.604 756.654 130.939 758.586 133.239C760.518 135.493 763.117 136.62 766.383 136.62ZM803.111 141.174C800.351 141.174 797.775 140.806 795.383 140.07C792.991 139.288 791.013 138.207 789.449 136.827L791.381 132.894C793.083 134.228 794.923 135.217 796.901 135.861C798.925 136.505 801.018 136.827 803.18 136.827C805.94 136.827 808.01 136.344 809.39 135.378C810.816 134.366 811.529 132.986 811.529 131.238C811.529 129.904 811.069 128.846 810.149 128.064C809.275 127.236 807.826 126.592 805.802 126.132L799.385 124.821C796.441 124.177 794.233 123.096 792.761 121.578C791.289 120.014 790.553 118.036 790.553 115.644C790.553 113.62 791.082 111.849 792.14 110.331C793.198 108.767 794.739 107.548 796.763 106.674C798.787 105.754 801.156 105.294 803.87 105.294C806.4 105.294 808.723 105.685 810.839 106.467C813.001 107.203 814.795 108.284 816.221 109.71L814.22 113.574C812.84 112.24 811.253 111.251 809.459 110.607C807.711 109.917 805.894 109.572 804.008 109.572C801.294 109.572 799.247 110.124 797.867 111.228C796.533 112.286 795.866 113.689 795.866 115.437C795.866 116.771 796.28 117.875 797.108 118.749C797.982 119.577 799.316 120.198 801.11 120.612L807.527 121.923C810.655 122.613 812.978 123.694 814.496 125.166C816.06 126.592 816.842 128.524 816.842 130.962C816.842 133.032 816.267 134.849 815.117 136.413C813.967 137.931 812.357 139.104 810.287 139.932C808.263 140.76 805.871 141.174 803.111 141.174ZM825.818 140.553V105.915H831.407V140.553H825.818ZM825.128 98.0487V91.7697H832.028V98.0487H825.128ZM853.783 141.174C851.023 141.174 848.447 140.806 846.055 140.07C843.663 139.288 841.685 138.207 840.121 136.827L842.053 132.894C843.755 134.228 845.595 135.217 847.573 135.861C849.597 136.505 851.69 136.827 853.852 136.827C856.612 136.827 858.682 136.344 860.062 135.378C861.488 134.366 862.201 132.986 862.201 131.238C862.201 129.904 861.741 128.846 860.821 128.064C859.947 127.236 858.498 126.592 856.474 126.132L850.057 124.821C847.113 124.177 844.905 123.096 843.433 121.578C841.961 120.014 841.225 118.036 841.225 115.644C841.225 113.62 841.754 111.849 842.812 110.331C843.87 108.767 845.411 107.548 847.435 106.674C849.459 105.754 851.828 105.294 854.542 105.294C857.072 105.294 859.395 105.685 861.511 106.467C863.673 107.203 865.467 108.284 866.893 109.71L864.892 113.574C863.512 112.24 861.925 111.251 860.131 110.607C858.383 109.917 856.566 109.572 854.68 109.572C851.966 109.572 849.919 110.124 848.539 111.228C847.205 112.286 846.538 113.689 846.538 115.437C846.538 116.771 846.952 117.875 847.78 118.749C848.654 119.577 849.988 120.198 851.782 120.612L858.199 121.923C861.327 122.613 863.65 123.694 865.168 125.166C866.732 126.592 867.514 128.524 867.514 130.962C867.514 133.032 866.939 134.849 865.789 136.413C864.639 137.931 863.029 139.104 860.959 139.932C858.935 140.76 856.543 141.174 853.783 141.174ZM910.972 141.174C907.062 141.174 903.566 140.668 900.484 139.656C897.402 138.644 894.711 137.195 892.411 135.309L894.481 130.755C896.091 131.951 897.701 132.963 899.311 133.791C900.967 134.573 902.738 135.171 904.624 135.585C906.51 135.953 908.626 136.137 910.972 136.137C915.066 136.137 918.102 135.378 920.08 133.86C922.058 132.342 923.047 130.318 923.047 127.788C923.047 125.626 922.357 123.97 920.977 122.82C919.597 121.67 917.182 120.75 913.732 120.06L906.487 118.611C902.025 117.691 898.69 116.196 896.482 114.126C894.32 112.056 893.239 109.25 893.239 105.708C893.239 102.81 893.975 100.28 895.447 98.1177C896.965 95.9557 899.081 94.2767 901.795 93.0807C904.509 91.8847 907.66 91.2867 911.248 91.2867C914.698 91.2867 917.849 91.8157 920.701 92.8737C923.553 93.8857 925.991 95.3807 928.015 97.3587L926.014 101.775C923.852 99.8427 921.575 98.4627 919.183 97.6347C916.837 96.7607 914.169 96.3237 911.179 96.3237C907.407 96.3237 904.417 97.1517 902.209 98.8077C900.047 100.418 898.966 102.626 898.966 105.432C898.966 107.686 899.656 109.457 901.036 110.745C902.416 111.987 904.693 112.93 907.867 113.574L915.181 115.023C919.873 115.989 923.323 117.438 925.531 119.37C927.739 121.302 928.843 124.016 928.843 127.512C928.843 130.18 928.107 132.549 926.635 134.619C925.209 136.689 923.162 138.299 920.494 139.449C917.826 140.599 914.652 141.174 910.972 141.174ZM950.651 141.174C947.569 141.174 944.878 140.461 942.578 139.035C940.278 137.563 938.484 135.493 937.196 132.825C935.954 130.157 935.333 126.96 935.333 123.234C935.333 119.462 935.954 116.242 937.196 113.574C938.484 110.906 940.278 108.859 942.578 107.433C944.878 106.007 947.569 105.294 950.651 105.294C953.779 105.294 956.47 106.099 958.724 107.709C961.024 109.273 962.542 111.412 963.278 114.126H962.45L963.209 105.915H968.591C968.453 107.249 968.315 108.606 968.177 109.986C968.085 111.32 968.039 112.631 968.039 113.919V140.553H962.45V132.411H963.209C962.473 135.125 960.955 137.264 958.655 138.828C956.355 140.392 953.687 141.174 950.651 141.174ZM951.755 136.62C955.067 136.62 957.689 135.493 959.621 133.239C961.553 130.939 962.519 127.604 962.519 123.234C962.519 118.818 961.553 115.483 959.621 113.229C957.689 110.929 955.067 109.779 951.755 109.779C948.489 109.779 945.867 110.929 943.889 113.229C941.957 115.483 940.991 118.818 940.991 123.234C940.991 127.604 941.957 130.939 943.889 133.239C945.867 135.493 948.489 136.62 951.755 136.62ZM980.639 140.553V110.262H973.877V105.915H982.157L980.639 107.364V101.568C980.639 97.6577 981.628 94.6677 983.606 92.5977C985.584 90.5277 988.413 89.4927 992.093 89.4927C993.013 89.4927 993.956 89.5847 994.922 89.7687C995.934 89.9067 996.762 90.1137 997.406 90.3897V95.0127C996.854 94.7827 996.164 94.5987 995.336 94.4607C994.554 94.2767 993.749 94.1847 992.921 94.1847C991.495 94.1847 990.276 94.4837 989.264 95.0817C988.252 95.6337 987.493 96.4847 986.987 97.6347C986.481 98.7847 986.228 100.257 986.228 102.051V107.088L985.331 105.915H995.888V110.262H986.228V140.553H980.639ZM1016.6 141.174C1011.17 141.174 1006.9 139.61 1003.77 136.482C1000.64 133.308 999.077 128.915 999.077 123.303C999.077 119.669 999.767 116.518 1001.15 113.85C1002.53 111.136 1004.46 109.043 1006.94 107.571C1009.43 106.053 1012.28 105.294 1015.5 105.294C1018.67 105.294 1021.34 105.961 1023.5 107.295C1025.66 108.629 1027.32 110.538 1028.47 113.022C1029.62 115.46 1030.2 118.358 1030.2 121.716V123.786H1003.35V120.267H1026.54L1025.37 121.164C1025.37 117.484 1024.54 114.609 1022.88 112.539C1021.23 110.469 1018.76 109.434 1015.5 109.434C1012.05 109.434 1009.36 110.653 1007.43 113.091C1005.49 115.483 1004.53 118.726 1004.53 122.82V123.441C1004.53 127.765 1005.59 131.054 1007.7 133.308C1009.86 135.516 1012.88 136.62 1016.74 136.62C1018.81 136.62 1020.74 136.321 1022.54 135.723C1024.38 135.079 1026.12 134.044 1027.78 132.618L1029.71 136.551C1028.19 138.023 1026.26 139.173 1023.92 140.001C1021.62 140.783 1019.18 141.174 1016.6 141.174Z" fill="#FE1D5B"/>
<rect x="415.006" y="4" width="191.982" height="411.006" transform="rotate(90 415.006 4)" stroke="#FE1D5B" stroke-width="8"/>
<path d="M1499.47 179.359V162.439H1510.27V164.071H1501.42V169.951H1509.74V171.607H1501.42V177.703H1510.27V179.359H1499.47ZM1513.58 179.359V162.439H1520.49C1522.27 162.439 1523.64 162.863 1524.62 163.711C1525.6 164.543 1526.08 165.711 1526.08 167.215C1526.08 168.207 1525.86 169.055 1525.41 169.759C1524.98 170.447 1524.36 170.975 1523.56 171.343C1522.78 171.711 1521.86 171.895 1520.8 171.895L1521.24 171.583H1521.72C1522.37 171.583 1522.96 171.743 1523.47 172.063C1524 172.383 1524.41 172.919 1524.72 173.671L1527.12 179.359H1524.93L1522.63 173.767C1522.36 173.047 1521.95 172.583 1521.4 172.375C1520.86 172.151 1520.18 172.039 1519.36 172.039H1515.57V179.359H1513.58ZM1515.57 170.479H1520.2C1521.48 170.479 1522.45 170.207 1523.11 169.663C1523.78 169.103 1524.12 168.303 1524.12 167.263C1524.12 166.223 1523.78 165.431 1523.11 164.887C1522.45 164.343 1521.48 164.071 1520.2 164.071H1515.57V170.479ZM1537.45 179.575C1535.75 179.575 1534.31 179.223 1533.13 178.519C1531.94 177.815 1531.03 176.815 1530.39 175.519C1529.77 174.223 1529.46 172.679 1529.46 170.887C1529.46 169.095 1529.77 167.559 1530.39 166.279C1531.03 164.983 1531.94 163.983 1533.13 163.279C1534.31 162.575 1535.75 162.223 1537.45 162.223C1538.65 162.223 1539.72 162.407 1540.66 162.775C1541.61 163.143 1542.43 163.679 1543.14 164.383L1542.39 165.967C1541.62 165.295 1540.86 164.807 1540.11 164.503C1539.36 164.183 1538.48 164.023 1537.47 164.023C1535.54 164.023 1534.06 164.623 1533.06 165.823C1532.05 167.023 1531.54 168.711 1531.54 170.887C1531.54 173.063 1532.05 174.759 1533.06 175.975C1534.06 177.175 1535.54 177.775 1537.47 177.775C1538.48 177.775 1539.36 177.623 1540.11 177.319C1540.86 176.999 1541.62 176.495 1542.39 175.807L1543.14 177.415C1542.43 178.103 1541.61 178.639 1540.66 179.023C1539.72 179.391 1538.65 179.575 1537.45 179.575ZM1545.4 173.575V171.967H1552.24V173.575H1545.4ZM1556 179.359V177.871L1562 171.607C1562.79 170.791 1563.37 170.015 1563.75 169.279C1564.15 168.527 1564.35 167.751 1564.35 166.951C1564.35 165.975 1564.05 165.239 1563.44 164.743C1562.83 164.231 1561.95 163.975 1560.8 163.975C1559.91 163.975 1559.07 164.135 1558.31 164.455C1557.55 164.759 1556.83 165.247 1556.12 165.919L1555.4 164.359C1556.04 163.719 1556.86 163.207 1557.85 162.823C1558.84 162.423 1559.89 162.223 1560.99 162.223C1562.71 162.223 1564.03 162.623 1564.95 163.423C1565.88 164.207 1566.35 165.327 1566.35 166.783C1566.35 167.855 1566.08 168.879 1565.55 169.855C1565.04 170.815 1564.29 171.807 1563.3 172.831L1557.99 178.207V177.655H1567.07V179.359H1556ZM1575.53 179.575C1573.61 179.575 1572.14 178.831 1571.11 177.343C1570.09 175.855 1569.58 173.703 1569.58 170.887C1569.58 168.055 1570.09 165.903 1571.11 164.431C1572.14 162.959 1573.61 162.223 1575.53 162.223C1577.46 162.223 1578.94 162.959 1579.94 164.431C1580.97 165.903 1581.48 168.047 1581.48 170.863C1581.48 173.695 1580.97 175.855 1579.94 177.343C1578.92 178.831 1577.45 179.575 1575.53 179.575ZM1575.53 177.847C1576.87 177.847 1577.87 177.279 1578.53 176.143C1579.18 175.007 1579.51 173.247 1579.51 170.863C1579.51 168.463 1579.18 166.711 1578.53 165.607C1577.87 164.487 1576.87 163.927 1575.53 163.927C1574.2 163.927 1573.2 164.487 1572.53 165.607C1571.87 166.727 1571.54 168.479 1571.54 170.863C1571.54 173.247 1571.87 175.007 1572.53 176.143C1573.2 177.279 1574.2 177.847 1575.53 177.847Z" fill="#FE1D5B"/>
<path d="M1270.61 166.359V149.439H1272.17L1283.02 163.839H1282.46V149.439H1284.31V166.359H1282.78L1271.93 151.959H1272.46V166.359H1270.61ZM1292.91 166.575C1291.83 166.575 1290.9 166.327 1290.1 165.831C1289.3 165.319 1288.67 164.599 1288.23 163.671C1287.79 162.743 1287.58 161.631 1287.58 160.335C1287.58 159.023 1287.79 157.903 1288.23 156.975C1288.67 156.047 1289.3 155.335 1290.1 154.839C1290.9 154.343 1291.83 154.095 1292.91 154.095C1293.99 154.095 1294.93 154.375 1295.71 154.935C1296.51 155.479 1297.04 156.223 1297.3 157.167H1297.01L1297.27 154.311H1299.15C1299.1 154.775 1299.05 155.247 1299 155.727C1298.97 156.191 1298.95 156.647 1298.95 157.095V166.359H1297.01V163.527H1297.27C1297.02 164.471 1296.49 165.215 1295.69 165.759C1294.89 166.303 1293.96 166.575 1292.91 166.575ZM1293.29 164.991C1294.44 164.991 1295.35 164.599 1296.03 163.815C1296.7 163.015 1297.03 161.855 1297.03 160.335C1297.03 158.799 1296.7 157.639 1296.03 156.855C1295.35 156.055 1294.44 155.655 1293.29 155.655C1292.15 155.655 1291.24 156.055 1290.55 156.855C1289.88 157.639 1289.55 158.799 1289.55 160.335C1289.55 161.855 1289.88 163.015 1290.55 163.815C1291.24 164.599 1292.15 164.991 1293.29 164.991ZM1306.98 166.575C1305.8 166.575 1304.9 166.239 1304.27 165.567C1303.65 164.879 1303.34 163.847 1303.34 162.471V155.823H1300.98V154.311H1303.34V151.023L1305.28 150.471V154.311H1308.74V155.823H1305.28V162.255C1305.28 163.215 1305.44 163.903 1305.76 164.319C1306.1 164.719 1306.59 164.919 1307.25 164.919C1307.55 164.919 1307.82 164.895 1308.06 164.847C1308.3 164.783 1308.52 164.711 1308.71 164.631V166.263C1308.49 166.359 1308.22 166.431 1307.9 166.479C1307.59 166.543 1307.29 166.575 1306.98 166.575ZM1311.1 166.359V154.311H1313.05V166.359H1311.1ZM1310.86 151.575V149.391H1313.26V151.575H1310.86ZM1320.37 166.359L1315.21 154.311H1317.33L1321.65 164.919H1321L1325.37 154.311H1327.38L1322.22 166.359H1320.37ZM1334.76 166.575C1332.87 166.575 1331.38 166.031 1330.3 164.943C1329.21 163.839 1328.66 162.311 1328.66 160.359C1328.66 159.095 1328.9 157.999 1329.38 157.071C1329.86 156.127 1330.54 155.399 1331.4 154.887C1332.26 154.359 1333.26 154.095 1334.38 154.095C1335.48 154.095 1336.41 154.327 1337.16 154.791C1337.91 155.255 1338.49 155.919 1338.89 156.783C1339.29 157.631 1339.49 158.639 1339.49 159.807V160.527H1330.15V159.303H1338.22L1337.81 159.615C1337.81 158.335 1337.52 157.335 1336.94 156.615C1336.37 155.895 1335.51 155.535 1334.38 155.535C1333.18 155.535 1332.24 155.959 1331.57 156.807C1330.9 157.639 1330.56 158.767 1330.56 160.191V160.407C1330.56 161.911 1330.93 163.055 1331.66 163.839C1332.42 164.607 1333.46 164.991 1334.81 164.991C1335.53 164.991 1336.2 164.887 1336.82 164.679C1337.46 164.455 1338.07 164.095 1338.65 163.599L1339.32 164.967C1338.79 165.479 1338.12 165.879 1337.3 166.167C1336.5 166.439 1335.66 166.575 1334.76 166.575ZM1277.98 192.359V177.119H1272.01V175.439H1285.93V177.119H1279.97V192.359H1277.98ZM1291.26 192.575C1290.11 192.575 1289.1 192.327 1288.24 191.831C1287.39 191.319 1286.73 190.599 1286.27 189.671C1285.81 188.727 1285.57 187.615 1285.57 186.335C1285.57 185.039 1285.81 183.927 1286.27 182.999C1286.73 182.071 1287.39 181.359 1288.24 180.863C1289.1 180.351 1290.11 180.095 1291.26 180.095C1292.43 180.095 1293.44 180.351 1294.29 180.863C1295.15 181.359 1295.81 182.071 1296.28 182.999C1296.76 183.927 1297 185.039 1297 186.335C1297 187.615 1296.76 188.727 1296.28 189.671C1295.81 190.599 1295.15 191.319 1294.29 191.831C1293.44 192.327 1292.43 192.575 1291.26 192.575ZM1291.26 190.991C1292.41 190.991 1293.33 190.599 1294 189.815C1294.67 189.015 1295.01 187.855 1295.01 186.335C1295.01 184.799 1294.66 183.639 1293.97 182.855C1293.3 182.055 1292.4 181.655 1291.26 181.655C1290.13 181.655 1289.22 182.055 1288.55 182.855C1287.88 183.639 1287.54 184.799 1287.54 186.335C1287.54 187.855 1287.88 189.015 1288.55 189.815C1289.22 190.599 1290.13 190.991 1291.26 190.991ZM1300.03 192.359V174.695H1301.97V185.663H1302.02L1307.61 180.311H1310.06L1303.46 186.599L1303.51 185.615L1310.68 192.359H1308.16L1302.02 186.695H1301.97V192.359H1300.03ZM1317.43 192.575C1315.54 192.575 1314.05 192.031 1312.96 190.943C1311.88 189.839 1311.33 188.311 1311.33 186.359C1311.33 185.095 1311.57 183.999 1312.05 183.071C1312.53 182.127 1313.2 181.399 1314.07 180.887C1314.93 180.359 1315.92 180.095 1317.04 180.095C1318.15 180.095 1319.08 180.327 1319.83 180.791C1320.58 181.255 1321.16 181.919 1321.56 182.783C1321.96 183.631 1322.16 184.639 1322.16 185.807V186.527H1312.82V185.303H1320.88L1320.48 185.615C1320.48 184.335 1320.19 183.335 1319.61 182.615C1319.04 181.895 1318.18 181.535 1317.04 181.535C1315.84 181.535 1314.91 181.959 1314.24 182.807C1313.56 183.639 1313.23 184.767 1313.23 186.191V186.407C1313.23 187.911 1313.6 189.055 1314.33 189.839C1315.08 190.607 1316.13 190.991 1317.48 190.991C1318.2 190.991 1318.87 190.887 1319.49 190.679C1320.13 190.455 1320.74 190.095 1321.32 189.599L1321.99 190.967C1321.46 191.479 1320.79 191.879 1319.97 192.167C1319.17 192.439 1318.32 192.575 1317.43 192.575ZM1325.13 192.359V183.095C1325.13 182.647 1325.11 182.191 1325.06 181.727C1325.03 181.247 1324.99 180.775 1324.94 180.311H1326.81L1327.05 182.951H1326.76C1327.11 182.023 1327.67 181.319 1328.44 180.839C1329.23 180.343 1330.13 180.095 1331.15 180.095C1332.58 180.095 1333.65 180.479 1334.37 181.247C1335.11 181.999 1335.47 183.191 1335.47 184.823V192.359H1333.53V184.943C1333.53 183.807 1333.3 182.983 1332.83 182.471C1332.39 181.943 1331.68 181.679 1330.72 181.679C1329.6 181.679 1328.71 182.023 1328.06 182.711C1327.4 183.399 1327.07 184.319 1327.07 185.471V192.359H1325.13Z" fill="#FE1D5B"/>
<path d="M1261.3 400.34V383.42H1272.1V385.052H1263.24V390.932H1271.57V392.588H1263.24V398.684H1272.1V400.34H1261.3ZM1275.41 400.34V383.42H1282.32C1284.09 383.42 1285.47 383.844 1286.45 384.692C1287.42 385.524 1287.91 386.692 1287.91 388.196C1287.91 389.188 1287.69 390.036 1287.24 390.74C1286.81 391.428 1286.19 391.956 1285.39 392.324C1284.61 392.692 1283.69 392.876 1282.63 392.876L1283.06 392.564H1283.54C1284.2 392.564 1284.78 392.724 1285.29 393.044C1285.82 393.364 1286.24 393.9 1286.54 394.652L1288.94 400.34H1286.76L1284.45 394.748C1284.18 394.028 1283.77 393.564 1283.23 393.356C1282.69 393.132 1282.01 393.02 1281.19 393.02H1277.4V400.34H1275.41ZM1277.4 391.46H1282.03C1283.31 391.46 1284.28 391.188 1284.93 390.644C1285.61 390.084 1285.94 389.284 1285.94 388.244C1285.94 387.204 1285.61 386.412 1284.93 385.868C1284.28 385.324 1283.31 385.052 1282.03 385.052H1277.4V391.46ZM1299.27 400.556C1297.58 400.556 1296.14 400.204 1294.95 399.5C1293.77 398.796 1292.86 397.796 1292.22 396.5C1291.59 395.204 1291.28 393.66 1291.28 391.868C1291.28 390.076 1291.59 388.54 1292.22 387.26C1292.86 385.964 1293.77 384.964 1294.95 384.26C1296.14 383.556 1297.58 383.204 1299.27 383.204C1300.47 383.204 1301.55 383.388 1302.49 383.756C1303.43 384.124 1304.26 384.66 1304.96 385.364L1304.22 386.948C1303.45 386.276 1302.69 385.788 1301.94 385.484C1301.19 385.164 1300.31 385.004 1299.3 385.004C1297.36 385.004 1295.89 385.604 1294.88 386.804C1293.87 388.004 1293.37 389.692 1293.37 391.868C1293.37 394.044 1293.87 395.74 1294.88 396.956C1295.89 398.156 1297.36 398.756 1299.3 398.756C1300.31 398.756 1301.19 398.604 1301.94 398.3C1302.69 397.98 1303.45 397.476 1304.22 396.788L1304.96 398.396C1304.26 399.084 1303.43 399.62 1302.49 400.004C1301.55 400.372 1300.47 400.556 1299.27 400.556ZM1307.23 394.556V392.948H1314.07V394.556H1307.23ZM1318.48 400.34L1326.8 384.26V385.124H1317.35V383.42H1328.6V384.908L1320.66 400.34H1318.48ZM1332.22 400.34V398.852L1338.22 392.588C1339 391.772 1339.59 390.996 1339.97 390.26C1340.37 389.508 1340.57 388.732 1340.57 387.932C1340.57 386.956 1340.27 386.22 1339.66 385.724C1339.05 385.212 1338.17 384.956 1337.02 384.956C1336.12 384.956 1335.29 385.116 1334.52 385.436C1333.77 385.74 1333.04 386.228 1332.34 386.9L1331.62 385.34C1332.26 384.7 1333.07 384.188 1334.07 383.804C1335.06 383.404 1336.11 383.204 1337.21 383.204C1338.92 383.204 1340.24 383.604 1341.17 384.404C1342.1 385.188 1342.56 386.308 1342.56 387.764C1342.56 388.836 1342.3 389.86 1341.77 390.836C1341.26 391.796 1340.51 392.788 1339.51 393.812L1334.21 399.188V398.636H1343.28V400.34H1332.22ZM1347.59 400.34V398.636H1351.58V385.124H1352.63L1347.98 388.028V386.036L1352.13 383.42H1353.57V398.636H1357.31V400.34H1347.59Z" fill="#FE1D5B"/>
<path d="M1489.92 400.34V383.42H1500.72V385.052H1491.86V390.932H1500.19V392.588H1491.86V398.684H1500.72V400.34H1489.92ZM1504.03 400.34V383.42H1510.94C1512.72 383.42 1514.09 383.844 1515.07 384.692C1516.05 385.524 1516.53 386.692 1516.53 388.196C1516.53 389.188 1516.31 390.036 1515.86 390.74C1515.43 391.428 1514.81 391.956 1514.01 392.324C1513.23 392.692 1512.31 392.876 1511.25 392.876L1511.69 392.564H1512.17C1512.82 392.564 1513.41 392.724 1513.92 393.044C1514.45 393.364 1514.86 393.9 1515.17 394.652L1517.57 400.34H1515.38L1513.08 394.748C1512.81 394.028 1512.4 393.564 1511.85 393.356C1511.31 393.132 1510.63 393.02 1509.81 393.02H1506.02V400.34H1504.03ZM1506.02 391.46H1510.65C1511.93 391.46 1512.9 391.188 1513.56 390.644C1514.23 390.084 1514.57 389.284 1514.57 388.244C1514.57 387.204 1514.23 386.412 1513.56 385.868C1512.9 385.324 1511.93 385.052 1510.65 385.052H1506.02V391.46ZM1527.9 400.556C1526.2 400.556 1524.76 400.204 1523.58 399.5C1522.39 398.796 1521.48 397.796 1520.84 396.5C1520.22 395.204 1519.91 393.66 1519.91 391.868C1519.91 390.076 1520.22 388.54 1520.84 387.26C1521.48 385.964 1522.39 384.964 1523.58 384.26C1524.76 383.556 1526.2 383.204 1527.9 383.204C1529.1 383.204 1530.17 383.388 1531.11 383.756C1532.06 384.124 1532.88 384.66 1533.59 385.364L1532.84 386.948C1532.07 386.276 1531.31 385.788 1530.56 385.484C1529.81 385.164 1528.93 385.004 1527.92 385.004C1525.99 385.004 1524.51 385.604 1523.51 386.804C1522.5 388.004 1521.99 389.692 1521.99 391.868C1521.99 394.044 1522.5 395.74 1523.51 396.956C1524.51 398.156 1525.99 398.756 1527.92 398.756C1528.93 398.756 1529.81 398.604 1530.56 398.3C1531.31 397.98 1532.07 397.476 1532.84 396.788L1533.59 398.396C1532.88 399.084 1532.06 399.62 1531.11 400.004C1530.17 400.372 1529.1 400.556 1527.9 400.556ZM1535.85 394.556V392.948H1542.69V394.556H1535.85ZM1547.43 400.34V398.636H1551.42V385.124H1552.47L1547.82 388.028V386.036L1551.97 383.42H1553.41V398.636H1557.15V400.34H1547.43ZM1561.82 400.34V398.636H1565.81V385.124H1566.86L1562.21 388.028V386.036L1566.36 383.42H1567.8V398.636H1571.54V400.34H1561.82ZM1580.68 400.556C1579.94 400.556 1579.22 400.476 1578.52 400.316C1577.82 400.156 1577.15 399.924 1576.53 399.62C1575.92 399.316 1575.38 398.948 1574.92 398.516L1575.66 396.98C1576.45 397.604 1577.25 398.068 1578.06 398.372C1578.88 398.66 1579.75 398.804 1580.68 398.804C1581.9 398.804 1582.85 398.476 1583.54 397.82C1584.22 397.164 1584.57 396.3 1584.57 395.228C1584.57 394.124 1584.24 393.22 1583.58 392.516C1582.93 391.812 1582.02 391.46 1580.85 391.46C1580.02 391.46 1579.27 391.628 1578.62 391.964C1577.96 392.284 1577.39 392.788 1576.91 393.476H1575.47V383.42H1585.5V385.1H1577.39V391.844H1576.86C1577.3 391.172 1577.89 390.66 1578.64 390.308C1579.41 389.94 1580.27 389.756 1581.23 389.756C1582.32 389.756 1583.26 389.98 1584.04 390.428C1584.84 390.876 1585.46 391.5 1585.89 392.3C1586.32 393.1 1586.54 394.036 1586.54 395.108C1586.54 396.18 1586.3 397.132 1585.82 397.964C1585.35 398.78 1584.68 399.42 1583.8 399.884C1582.94 400.332 1581.9 400.556 1580.68 400.556ZM1595.07 400.556C1594.33 400.556 1593.61 400.476 1592.91 400.316C1592.21 400.156 1591.54 399.924 1590.92 399.62C1590.31 399.316 1589.77 398.948 1589.31 398.516L1590.05 396.98C1590.84 397.604 1591.64 398.068 1592.45 398.372C1593.27 398.66 1594.14 398.804 1595.07 398.804C1596.29 398.804 1597.24 398.476 1597.93 397.82C1598.61 397.164 1598.96 396.3 1598.96 395.228C1598.96 394.124 1598.63 393.22 1597.97 392.516C1597.32 391.812 1596.41 391.46 1595.24 391.46C1594.41 391.46 1593.66 391.628 1593.01 391.964C1592.35 392.284 1591.78 392.788 1591.3 393.476H1589.86V383.42H1599.89V385.1H1591.78V391.844H1591.25C1591.69 391.172 1592.28 390.66 1593.03 390.308C1593.8 389.94 1594.66 389.756 1595.62 389.756C1596.71 389.756 1597.65 389.98 1598.43 390.428C1599.23 390.876 1599.85 391.5 1600.28 392.3C1600.71 393.1 1600.93 394.036 1600.93 395.108C1600.93 396.18 1600.69 397.132 1600.21 397.964C1599.74 398.78 1599.07 399.42 1598.19 399.884C1597.33 400.332 1596.29 400.556 1595.07 400.556Z" fill="#FE1D5B"/>
<path d="M137.528 112.787V109.859L158.024 80.8191V82.3551L137.528 82.3551V78.9471L161.816 78.9471V81.8751L141.272 110.867V109.379L162.344 109.379V112.787L137.528 112.787ZM177.034 113.219C174.73 113.219 172.714 112.723 170.986 111.731C169.29 110.707 167.978 109.267 167.05 107.411C166.122 105.523 165.658 103.299 165.658 100.739C165.658 98.1471 166.122 95.9231 167.05 94.0671C167.978 92.2111 169.29 90.7871 170.986 89.7951C172.714 88.7711 174.73 88.2591 177.034 88.2591C179.37 88.2591 181.386 88.7711 183.082 89.7951C184.81 90.7871 186.138 92.2111 187.066 94.0671C188.026 95.9231 188.506 98.1471 188.506 100.739C188.506 103.299 188.026 105.523 187.066 107.411C186.138 109.267 184.81 110.707 183.082 111.731C181.386 112.723 179.37 113.219 177.034 113.219ZM177.034 110.051C179.338 110.051 181.162 109.267 182.506 107.699C183.85 106.099 184.522 103.779 184.522 100.739C184.522 97.6671 183.834 95.3471 182.458 93.7791C181.114 92.1791 179.306 91.3791 177.034 91.3791C174.762 91.3791 172.954 92.1791 171.61 93.7791C170.266 95.3471 169.594 97.6671 169.594 100.739C169.594 103.779 170.266 106.099 171.61 107.699C172.954 109.267 174.762 110.051 177.034 110.051ZM203.688 113.219C201.576 113.219 199.72 112.723 198.12 111.731C196.52 110.707 195.272 109.267 194.376 107.411C193.512 105.555 193.08 103.331 193.08 100.739C193.08 98.1151 193.512 95.8751 194.376 94.0191C195.272 92.1631 196.52 90.7391 198.12 89.7471C199.72 88.7551 201.576 88.2591 203.688 88.2591C205.864 88.2591 207.736 88.8031 209.304 89.8911C210.904 90.9791 211.976 92.4511 212.52 94.3071H211.944L211.944 77.4591H215.832L215.832 112.787L211.992 112.787L211.992 107.027H212.52C212.008 108.947 210.952 110.467 209.352 111.587C207.752 112.675 205.864 113.219 203.688 113.219ZM204.504 110.051C206.776 110.051 208.6 109.267 209.976 107.699C211.352 106.099 212.04 103.779 212.04 100.739C212.04 97.6671 211.352 95.3471 209.976 93.7791C208.6 92.1791 206.776 91.3791 204.504 91.3791C202.232 91.3791 200.408 92.1791 199.032 93.7791C197.688 95.3471 197.016 97.6671 197.016 100.739C197.016 103.779 197.688 106.099 199.032 107.699C200.408 109.267 202.232 110.051 204.504 110.051ZM223.35 112.787L223.35 88.6911H227.238L227.238 112.787H223.35ZM222.87 83.2191L222.87 78.8511H227.67L227.67 83.2191H222.87ZM243.955 113.219C241.811 113.219 239.939 112.723 238.339 111.731C236.739 110.707 235.491 109.267 234.595 107.411C233.731 105.555 233.299 103.331 233.299 100.739C233.299 98.1151 233.731 95.8751 234.595 94.0191C235.491 92.1631 236.739 90.7391 238.339 89.7471C239.939 88.7551 241.811 88.2591 243.955 88.2591C246.131 88.2591 248.003 88.8191 249.571 89.9391C251.171 91.0271 252.227 92.5151 252.739 94.4031H252.163L252.691 88.6911L256.435 88.6911C256.339 89.6191 256.243 90.5631 256.147 91.5231C256.083 92.4511 256.051 93.3631 256.051 94.2591L256.051 112.787H252.163V107.123H252.691C252.179 109.011 251.123 110.499 249.523 111.587C247.923 112.675 246.067 113.219 243.955 113.219ZM244.723 110.051C247.027 110.051 248.851 109.267 250.195 107.699C251.539 106.099 252.211 103.779 252.211 100.739C252.211 97.6671 251.539 95.3471 250.195 93.7791C248.851 92.1791 247.027 91.3791 244.723 91.3791C242.451 91.3791 240.627 92.1791 239.251 93.7791C237.907 95.3471 237.235 97.6671 237.235 100.739C237.235 103.779 237.907 106.099 239.251 107.699C240.627 109.267 242.451 110.051 244.723 110.051ZM273.696 113.219C271.328 113.219 269.264 112.707 267.504 111.683C265.776 110.659 264.432 109.203 263.472 107.315C262.544 105.427 262.08 103.187 262.08 100.595C262.08 97.9711 262.56 95.7471 263.52 93.9231C264.48 92.0671 265.824 90.6591 267.552 89.6991C269.312 88.7391 271.36 88.2591 273.696 88.2591C275.232 88.2591 276.72 88.5311 278.16 89.0751C279.632 89.6191 280.848 90.3871 281.808 91.3791L280.416 94.1631C279.456 93.2351 278.4 92.5471 277.248 92.0991C276.128 91.6511 275.024 91.4271 273.936 91.4271C271.44 91.4271 269.504 92.2111 268.128 93.7791C266.752 95.3471 266.064 97.6351 266.064 100.643C266.064 103.619 266.752 105.923 268.128 107.555C269.504 109.187 271.44 110.003 273.936 110.003C274.992 110.003 276.08 109.795 277.2 109.379C278.352 108.963 279.424 108.275 280.416 107.315L281.808 110.051C280.816 111.075 279.584 111.859 278.112 112.403C276.64 112.947 275.168 113.219 273.696 113.219Z" fill="#FE1D5B"/>
<circle cx="1543.56" cy="170.072" r="91.8184" stroke="#FE1D5B" stroke-width="8"/>
<circle cx="1308.05" cy="170.072" r="91.8184" stroke="#FE1D5B" stroke-width="8"/>
<circle cx="1308.05" cy="391.053" r="91.8184" stroke="#FE1D5B" stroke-width="8"/>
<circle cx="1543.56" cy="391.053" r="91.8184" stroke="#FE1D5B" stroke-width="8"/>
<path d="M533.191 102.819C534.753 101.257 534.753 98.7239 533.191 97.1618L507.735 71.706C506.173 70.1439 503.64 70.1439 502.078 71.706C500.516 73.2681 500.516 75.8007 502.078 77.3628L524.705 99.9902L502.078 122.618C500.516 124.18 500.516 126.712 502.078 128.275C503.64 129.837 506.173 129.837 507.735 128.275L533.191 102.819ZM419.006 103.99L530.362 103.99V95.9902L419.006 95.9902V103.99Z" fill="#FE1D5B"/>
</svg>
