<svg width="759" height="652" viewBox="0 0 759 652" fill="none" xmlns="http://www.w3.org/2000/svg">
<circle cx="434.93" cy="107.85" r="107.732" fill="#FE1D5B"/>
<circle cx="111.748" cy="323.783" r="107.732" fill="#FE1D5B"/>
<path d="M542.666 107.732C542.666 167.231 590.899 215.465 650.398 215.465V0C590.899 0 542.666 48.2334 542.666 107.732Z" fill="#FE1D5B"/>
<path d="M219.473 323.662C219.473 383.161 267.706 431.395 327.205 431.395V215.93C267.706 215.93 219.473 264.163 219.473 323.662Z" fill="#FE1D5B"/>
<path d="M327.203 215.928C327.203 275.427 375.437 323.66 434.936 323.66L434.936 215.928L327.203 215.928Z" fill="#FE1D5B"/>
<path d="M434.936 323.785C375.437 323.785 327.203 372.019 327.203 431.518L434.936 431.518L434.936 323.785Z" fill="#FE1D5B"/>
<path fill-rule="evenodd" clip-rule="evenodd" d="M219.461 0.238281C278.96 0.238284 327.193 48.4717 327.193 107.971L219.461 107.971L219.461 0.238281ZM327.191 107.971V215.703C267.692 215.703 219.459 167.47 219.459 107.971H327.191Z" fill="#FE1D5B"/>
<path d="M111.727 0.238281C171.226 0.238284 219.459 48.4717 219.459 107.971L111.727 107.971L111.727 0.238281Z" fill="#FE1D5B"/>
<path d="M219.457 107.971V215.703C159.958 215.703 111.725 167.47 111.725 107.971H219.457Z" fill="#FE1D5B"/>
<path d="M758.133 107.852C698.634 107.852 650.4 156.085 650.4 215.584L758.133 215.584L758.133 107.852Z" fill="#FE1D5B"/>
<path d="M542.67 323.555C602.169 323.555 650.402 275.321 650.402 215.822L434.937 215.822C434.937 275.321 483.171 323.555 542.67 323.555Z" fill="#FE1D5B"/>
<path d="M542.662 323.664C483.163 323.664 434.93 371.898 434.93 431.396L650.395 431.396C650.395 371.898 602.161 323.664 542.662 323.664Z" fill="#FE1D5B"/>
<path d="M4.01561 539.357C4.0156 598.856 52.249 647.09 111.748 647.09L111.748 431.625C52.2491 431.625 4.01562 479.858 4.01561 539.357Z" stroke="#FE1D5B" stroke-width="8"/>
<path d="M111.754 539.357C111.754 598.856 159.987 647.09 219.486 647.09L219.486 431.625C159.987 431.625 111.754 479.858 111.754 539.357Z" stroke="#FE1D5B" stroke-width="8"/>
<path d="M219.484 539.357C219.484 598.856 267.718 647.09 327.217 647.09L327.217 431.625C267.718 431.625 219.484 479.858 219.484 539.357Z" stroke="#FE1D5B" stroke-width="8"/>
<path d="M111.732 107.854C111.732 48.3546 63.499 0.121105 4.00003 0.1211L4.00001 215.586C63.499 215.586 111.732 167.352 111.732 107.854Z" fill="#FE1D5B"/>
</svg>
